<?xml version="1.0" encoding="UTF-8"?>
<svg version="1.1" xmlns="http://www.w3.org/2000/svg" width="64" height="64">
<path d="M0 0 C2.17487292 -0.0096747 4.34878709 -0.04072038 6.5234375 -0.07226562 C21.42262505 -0.1876099 21.42262505 -0.1876099 27.4453125 3.24023438 C32.21026566 8.83905434 32.60516056 13.67964038 32.6484375 20.78710938 C32.65413757 21.51714172 32.65983765 22.24717407 32.66571045 22.99932861 C32.6751384 24.54250652 32.68168565 26.08570437 32.68554688 27.62890625 C32.69522247 29.9684648 32.72625295 32.30713286 32.7578125 34.64648438 C32.76434658 36.15168754 32.76959546 37.65689693 32.7734375 39.16210938 C32.7857843 39.85197937 32.7981311 40.54184937 32.81085205 41.25262451 C32.78811451 46.30752979 31.85814313 50.79758989 29.4453125 55.24023438 C22.20835262 61.37591775 13.88477188 60.45629094 4.890625 60.48046875 C2.71575208 60.49014345 0.54183791 60.52118913 -1.6328125 60.55273438 C-16.53200005 60.66807865 -16.53200005 60.66807865 -22.5546875 57.24023438 C-27.31964066 51.64141441 -27.71453556 46.80082837 -27.7578125 39.69335938 C-27.76351257 38.96332703 -27.76921265 38.23329468 -27.77508545 37.48114014 C-27.7845134 35.93796223 -27.79106065 34.39476438 -27.79492188 32.8515625 C-27.80459747 30.51200395 -27.83562795 28.17333589 -27.8671875 25.83398438 C-27.87372158 24.32878121 -27.87897046 22.82357182 -27.8828125 21.31835938 C-27.9013327 20.28355438 -27.9013327 20.28355438 -27.92022705 19.22784424 C-27.89748951 14.17293896 -26.96751813 9.68287886 -24.5546875 5.24023438 C-17.31772762 -0.895449 -8.99414688 0.02417781 0 0 Z " fill="#D04379" transform="translate(29.5546875,1.759765625)"/>
<path d="M0 0 C3.7778809 3.7778809 3.17215439 8.46050238 3.203125 13.546875 C3.20882507 14.27690735 3.21452515 15.0069397 3.22039795 15.75909424 C3.2298259 17.30227215 3.23637315 18.84546999 3.24023438 20.38867188 C3.24990997 22.72823042 3.28094045 25.06689849 3.3125 27.40625 C3.31903408 28.91145316 3.32428296 30.41666256 3.328125 31.921875 C3.3404718 32.611745 3.3528186 33.30161499 3.36553955 34.01239014 C3.34280201 39.06729541 2.41283063 43.55735551 0 48 C-7.23695988 54.13568337 -15.56054062 53.21605656 -24.5546875 53.24023438 C-26.72956042 53.24990908 -28.90347459 53.28095475 -31.078125 53.3125 C-45.97731255 53.42784427 -45.97731255 53.42784427 -52 50 C-57.35092778 43.71265985 -57.2798823 37.58469038 -57.4375 29.6875 C-57.48326172 28.76259766 -57.52902344 27.83769531 -57.57617188 26.88476562 C-57.67559615 20.80259341 -56.7296098 17.58087156 -52.49243164 13.15551758 C-51 12 -51 12 -49 12 C-48.98598145 12.99797607 -48.98598145 12.99797607 -48.97167969 14.01611328 C-48.91773981 17.05314019 -48.83413938 20.08866579 -48.75 23.125 C-48.73582031 24.17171875 -48.72164062 25.2184375 -48.70703125 26.296875 C-48.51223743 32.4523596 -48.17829902 36.34897372 -44 41 C-38.95243243 44.36504504 -33.05294001 43.36906613 -27.125 43.375 C-25.84496094 43.39949219 -24.56492188 43.42398438 -23.24609375 43.44921875 C-21.39564453 43.45501953 -21.39564453 43.45501953 -19.5078125 43.4609375 C-17.81615967 43.47326416 -17.81615967 43.47326416 -16.09033203 43.48583984 C-12.29127772 42.88857976 -10.69732494 41.70088734 -8 39 C-5.86681965 35.86381968 -5.753374 33.28142092 -5.76953125 29.53515625 C-5.77146484 28.48779297 -5.77339844 27.44042969 -5.77539062 26.36132812 C-5.78763672 25.27271484 -5.79988281 24.18410156 -5.8125 23.0625 C-5.81314453 21.97775391 -5.81378906 20.89300781 -5.81445312 19.77539062 C-5.84069773 15.03094871 -5.94315707 10.64220234 -7 6 C-3.535 3.03 -3.535 3.03 0 0 Z " fill="#FCA150" transform="translate(59,9)"/>
<path d="M0 0 C2.17487292 -0.0096747 4.34878709 -0.04072038 6.5234375 -0.07226562 C14.00316807 -0.1293628 20.49772725 0.14239333 27.4453125 3.24023438 C29.4453125 5.24023438 29.4453125 5.24023438 29.4453125 8.24023438 C27.6953125 9.84570312 27.6953125 9.84570312 25.4453125 11.42773438 C24.7028125 11.95753906 23.9603125 12.48734375 23.1953125 13.03320312 C22.6178125 13.43152344 22.0403125 13.82984375 21.4453125 14.24023438 C20.75308594 13.59119141 20.06085937 12.94214844 19.34765625 12.2734375 C15.91136977 9.86618701 14.15921247 9.72578195 10.0078125 9.70898438 C8.78320312 9.70382812 7.55859375 9.69867188 6.296875 9.69335938 C4.39035156 9.7165625 4.39035156 9.7165625 2.4453125 9.74023438 C1.17429687 9.72476562 -0.09671875 9.70929687 -1.40625 9.69335938 C-3.24316406 9.70109375 -3.24316406 9.70109375 -5.1171875 9.70898438 C-6.78974609 9.71575195 -6.78974609 9.71575195 -8.49609375 9.72265625 C-12.21822587 10.35251897 -13.86850445 11.63799455 -16.5546875 14.24023438 C-17.0290625 15.04460938 -17.5034375 15.84898438 -17.9921875 16.67773438 C-20.04402151 20.04274216 -22.45900506 21.80320777 -25.5546875 24.24023438 C-26.2146875 24.90023438 -26.8746875 25.56023438 -27.5546875 26.24023438 C-28.14788381 11.82776095 -28.14788381 11.82776095 -24.5546875 5.24023438 C-17.31772762 -0.895449 -8.99414688 0.02417781 0 0 Z " fill="#565CCD" transform="translate(29.5546875,1.759765625)"/>
<path d="M0 0 C1.90072266 -0.04253906 1.90072266 -0.04253906 3.83984375 -0.0859375 C14.23384031 -0.10779659 14.23384031 -0.10779659 17.8828125 2.78125 C22.8253541 8.77429696 22.49102584 13.82773269 22.5 21.375 C22.52449219 22.45136719 22.54898438 23.52773438 22.57421875 24.63671875 C22.59681505 30.74525306 22.4431723 34.78788917 18.125 39.5 C13.08636828 44.18477146 6.75047359 43.01314555 0.25 43 C-1.01714844 43.02835938 -2.28429687 43.05671875 -3.58984375 43.0859375 C-13.98384031 43.10779659 -13.98384031 43.10779659 -17.6328125 40.21875 C-22.5753541 34.22570304 -22.24102584 29.17226731 -22.25 21.625 C-22.27449219 20.54863281 -22.29898437 19.47226562 -22.32421875 18.36328125 C-22.34681505 12.25474694 -22.1931723 8.21211083 -17.875 3.5 C-12.83636828 -1.18477146 -6.50047359 -0.01314555 0 0 Z M-16.875 7.5 C-18.85842115 11.46684231 -18.10373705 16.45093738 -18.125 20.8125 C-18.145625 21.85857422 -18.16625 22.90464844 -18.1875 23.98242188 C-18.19265625 24.99498047 -18.1978125 26.00753906 -18.203125 27.05078125 C-18.2124707 27.97544189 -18.22181641 28.90010254 -18.23144531 29.8527832 C-17.79946775 33.06095632 -16.77457964 34.89684143 -14.875 37.5 C-10.32643839 40.53237441 -5.85019218 39.82893179 -0.5 39.8125 C1.06234375 39.83666992 1.06234375 39.83666992 2.65625 39.86132812 C9.96003535 40.00981596 9.96003535 40.00981596 16.125 36.5 C19.0844168 31.69053548 18.53195784 26.54312122 18.5625 21.0625 C18.59537109 20.02544922 18.62824219 18.98839844 18.66210938 17.91992188 C18.74687883 11.66992076 18.74687883 11.66992076 15.72265625 6.33984375 C10.56075988 2.68382391 5.9967378 3.24402868 -0.1875 3.1875 C-1.23357422 3.15849609 -2.27964844 3.12949219 -3.35742188 3.09960938 C-10.97148948 2.9812388 -10.97148948 2.9812388 -16.875 7.5 Z " fill="#FCF3F6" transform="translate(31.875,10.5)"/>
<path d="M0 0 C3.62416894 1.64734952 6.12851416 3.45402683 8 7 C8.41259969 10.78216379 8.32517815 13.24695586 6.8125 16.75 C3.79022645 20.50178785 1.33375077 21.80599989 -3.4375 22.5 C-8.19197325 21.83270551 -9.67221155 20.40702151 -13 17 C-14.21762731 13.34711807 -14.39075851 10.84245864 -14 7 C-10.35973954 0.90120542 -6.94453392 -0.47081586 0 0 Z " fill="#FCF4F7" transform="translate(35,21)"/>
<path d="M0 0 C0.01401855 0.99797607 0.01401855 0.99797607 0.02832031 2.01611328 C0.08226019 5.05314019 0.16586062 8.08866579 0.25 11.125 C0.26417969 12.17171875 0.27835938 13.2184375 0.29296875 14.296875 C0.48738 20.44027061 0.80026846 24.37420874 5 29 C8.10014929 30.88568694 8.10014929 30.88568694 11 32 C10.09627089 34.78649808 9.2608483 36.72051967 7.25 38.875 C4.02839138 40.48580431 2.39726324 40.10931045 -1 39 C-5.12187924 35.72123243 -6.70835957 33.04192973 -8 28 C-8.37639779 24.51759381 -8.46074912 21.06318765 -8.5 17.5625 C-8.54125 16.64662109 -8.5825 15.73074219 -8.625 14.78710938 C-8.69431577 8.75230478 -7.68186818 5.55129948 -3.49023438 1.15991211 C-2 0 -2 0 0 0 Z " fill="#E04B60" transform="translate(10,21)"/>
<path d="M0 0 C0.08736736 3.72901814 0.14051482 7.45777165 0.1875 11.1875 C0.21263672 12.24259766 0.23777344 13.29769531 0.26367188 14.38476562 C0.27333984 15.40634766 0.28300781 16.42792969 0.29296875 17.48046875 C0.3086792 18.41785889 0.32438965 19.35524902 0.34057617 20.32104492 C-0.07445707 23.58567559 -1.01533399 25.38688907 -3 28 C-6.08669262 30.17112056 -8.70870609 30.23656993 -12.421875 30.1953125 C-13.95908203 30.18564453 -13.95908203 30.18564453 -15.52734375 30.17578125 C-16.59082031 30.15902344 -17.65429688 30.14226563 -18.75 30.125 C-20.36841797 30.11146484 -20.36841797 30.11146484 -22.01953125 30.09765625 C-24.67991278 30.07411305 -27.33984336 30.04122799 -30 30 C-30 29.67 -30 29.34 -30 29 C-28.1128125 28.87625 -28.1128125 28.87625 -26.1875 28.75 C-22.75667002 28.38109685 -22.75667002 28.38109685 -20.25 26.0625 C-19.8375 25.381875 -19.425 24.70125 -19 24 C-17.125 22.9375 -17.125 22.9375 -15 22 C-11.33811105 20.08186769 -9.47901037 18.88670167 -8 15 C-7.94443213 12.57281299 -7.94443213 12.57281299 -8.1875 10.0625 C-8.28264795 6.03655216 -8.20500898 5.27703916 -5.6875 1.875 C-3 0 -3 0 0 0 Z " fill="#EB5B5E" transform="translate(50,20)"/>
<path d="M0 0 C4.9078754 4.9078754 3.26392527 13.54927528 3.3125 20 C3.34150391 21.28390625 3.37050781 22.5678125 3.40039062 23.890625 C3.40876953 25.12296875 3.41714844 26.3553125 3.42578125 27.625 C3.44036377 28.75164063 3.45494629 29.87828125 3.4699707 31.0390625 C2.89504062 34.66127133 1.8493997 35.7689917 -1 38 C-3.75 39.25 -3.75 39.25 -6 40 C-6.495 38.515 -6.495 38.515 -7 37 C-6.67 36.34 -6.34 35.68 -6 35 C-5.90343351 33.24558737 -5.86924513 31.48753577 -5.8671875 29.73046875 C-5.86589844 28.67666016 -5.86460938 27.62285156 -5.86328125 26.53710938 C-5.86714844 25.43173828 -5.87101562 24.32636719 -5.875 23.1875 C-5.87113281 22.09373047 -5.86726563 20.99996094 -5.86328125 19.87304688 C-5.86457031 18.81537109 -5.86585937 17.75769531 -5.8671875 16.66796875 C-5.86831543 15.70141357 -5.86944336 14.7348584 -5.87060547 13.73901367 C-5.9970988 11.06141241 -6.40211421 8.60914507 -7 6 C-4.69 4.02 -2.38 2.04 0 0 Z " fill="#DF4765" transform="translate(59,9)"/>
<path d="M0 0 C0.66 0.66 1.32 1.32 2 2 C0.68 3.32 -0.64 4.64 -2 6 C7.44934006 7.05248182 7.44934006 7.05248182 16.26953125 4.6640625 C17.31854771 3.57676077 18.3508169 2.4729797 19.36328125 1.3515625 C22.18393368 -0.97766361 25.10153439 -0.68515205 28.62109375 -0.46484375 C32.30710895 0.25541209 34.23661278 1.45477493 37 4 C37 4.99 37 5.98 37 7 C35.25 8.60546875 35.25 8.60546875 33 10.1875 C32.2575 10.71730469 31.515 11.24710938 30.75 11.79296875 C30.1725 12.19128906 29.595 12.58960938 29 13 C28.30777344 12.35095703 27.61554687 11.70191406 26.90234375 11.03320312 C23.46605727 8.62595264 21.71389997 8.48554757 17.5625 8.46875 C16.33789062 8.46359375 15.11328125 8.4584375 13.8515625 8.453125 C11.94503906 8.47632813 11.94503906 8.47632813 10 8.5 C8.72898437 8.48453125 7.45796875 8.4690625 6.1484375 8.453125 C4.31152344 8.46085938 4.31152344 8.46085938 2.4375 8.46875 C0.76494141 8.47551758 0.76494141 8.47551758 -0.94140625 8.48242188 C-4.66353837 9.11228459 -6.31381695 10.39776017 -9 13 C-9.474375 13.804375 -9.94875 14.60875 -10.4375 15.4375 C-12.48933401 18.80250778 -14.90431756 20.5629734 -18 23 C-18.66 23.66 -19.32 24.32 -20 25 C-20.42199473 21.9405382 -20.66979971 19.95468099 -20 17 C-18.36655622 15.2210483 -16.60634315 14.09474315 -14.578125 12.78515625 C-11.2794772 10.50109254 -8.42823328 7.85903146 -5.5 5.125 C-4.95956055 4.62379639 -4.41912109 4.12259277 -3.86230469 3.60620117 C-2.57191801 2.40730333 -1.28552546 1.20410885 0 0 Z " fill="#874CB1" transform="translate(22,3)"/>
<path d="M0 0 C2.375 1.625 2.375 1.625 4 4 C4.61195145 7.6717087 4.48706506 9.28813568 2.375 12.375 C-0.71186432 14.48706506 -2.3282913 14.61195145 -6 14 C-8.375 12.375 -8.375 12.375 -10 10 C-10.61195145 6.3282913 -10.48706506 4.71186432 -8.375 1.625 C-5.28813568 -0.48706506 -3.6717087 -0.61195145 0 0 Z " fill="#DF3C7A" transform="translate(35,25)"/>
<path d="M0 0 C1.04220703 -0.02900391 2.08441406 -0.05800781 3.15820312 -0.08789062 C9.30536521 -0.13869362 13.21545566 0.03304076 17.8125 4.3125 C17.8125 4.9725 17.8125 5.6325 17.8125 6.3125 C16.0625 7.8203125 16.0625 7.8203125 13.8125 9.4375 C13.07 9.97632813 12.3275 10.51515625 11.5625 11.0703125 C10.985 11.48023438 10.4075 11.89015625 9.8125 12.3125 C9.379375 11.838125 8.94625 11.36375 8.5 10.875 C6.78940387 9.07563043 6.78940387 9.07563043 3.8125 8.3125 C5.18233503 5.15134224 5.8015638 4.3197908 8.8125 2.3125 C6.12251437 2.1491038 3.44259246 2.03103919 0.75 1.9375 C-0.00216797 1.88722656 -0.75433594 1.83695313 -1.52929688 1.78515625 C-5.7674179 1.67507518 -8.6903077 2.16227372 -12.1875 4.65625 C-15.76315878 8.14170548 -16.04040283 11.45804672 -16.15820312 16.3046875 C-16.14724609 17.25601562 -16.13628906 18.20734375 -16.125 19.1875 C-16.14111328 20.16203125 -16.15722656 21.1365625 -16.17382812 22.140625 C-16.20900558 24.53269166 -16.21267629 26.92043411 -16.1875 29.3125 C-16.5175 29.3125 -16.8475 29.3125 -17.1875 29.3125 C-17.33310195 25.58374612 -17.42167043 21.85572566 -17.5 18.125 C-17.54189453 17.06990234 -17.58378906 16.01480469 -17.62695312 14.92773438 C-17.74821766 7.23956315 -17.74821766 7.23956315 -16.08740234 4.49365234 C-14.73046875 3.13671875 -14.73046875 3.13671875 -12.1875 1.3125 C-9.71806675 -1.15693325 -3.31276842 0.03017093 0 0 Z " fill="#C061AB" transform="translate(31.1875,13.6875)"/>
<path d="M0 0 C0.89267578 0.00322266 1.78535156 0.00644531 2.70507812 0.00976562 C4.09823242 0.02233398 4.09823242 0.02233398 5.51953125 0.03515625 C6.45990234 0.03966797 7.40027344 0.04417969 8.36914062 0.04882812 C10.69016837 0.06060999 13.01106769 0.07706067 15.33203125 0.09765625 C15.33203125 0.42765625 15.33203125 0.75765625 15.33203125 1.09765625 C14.03265625 1.43796875 14.03265625 1.43796875 12.70703125 1.78515625 C9.19308473 2.90157799 9.19308473 2.90157799 6.67578125 5.66015625 C2.85335274 8.94544612 -0.70048784 8.67690308 -5.54296875 8.41015625 C-6.71859375 8.37631836 -6.71859375 8.37631836 -7.91796875 8.34179688 C-9.83547135 8.28333643 -11.75197935 8.19366908 -13.66796875 8.09765625 C-12.73835453 6.94541597 -11.79895625 5.80106449 -10.85546875 4.66015625 C-10.33339844 4.02207031 -9.81132812 3.38398437 -9.2734375 2.7265625 C-6.51358445 -0.07358038 -3.72042948 -0.023697 0 0 Z " fill="#7054BF" transform="translate(32.66796875,1.90234375)"/>
<path d="M0 0 C0.66 0.66 1.32 1.32 2 2 C0.68 3.32 -0.64 4.64 -2 6 C5.92 6.33 13.84 6.66 22 7 C22 7.33 22 7.66 22 8 C21.23856689 8.0093457 20.47713379 8.01869141 19.69262695 8.02832031 C16.2319338 8.08210937 12.77257982 8.16574184 9.3125 8.25 C8.11431641 8.26417969 6.91613281 8.27835938 5.68164062 8.29296875 C4.52470703 8.32519531 3.36777344 8.35742188 2.17578125 8.390625 C1.11270752 8.41157227 0.04963379 8.43251953 -1.0456543 8.45410156 C-4.67816663 9.12531035 -6.35802966 10.4654411 -9 13 C-9.474375 13.804375 -9.94875 14.60875 -10.4375 15.4375 C-12.48933401 18.80250778 -14.90431756 20.5629734 -18 23 C-18.66 23.66 -19.32 24.32 -20 25 C-20.42199473 21.9405382 -20.66979971 19.95468099 -20 17 C-18.36655622 15.2210483 -16.60634315 14.09474315 -14.578125 12.78515625 C-11.2794772 10.50109254 -8.42823328 7.85903146 -5.5 5.125 C-4.95956055 4.62379639 -4.41912109 4.12259277 -3.86230469 3.60620117 C-2.57191801 2.40730333 -1.28552546 1.20410885 0 0 Z " fill="#886DC7" transform="translate(22,3)"/>
<path d="M0 0 C6.6 0 13.2 0 20 0 C16.35842542 2.42771639 12.85586355 3.40671873 8.6875 4.625 C7.56698242 4.96917969 7.56698242 4.96917969 6.42382812 5.3203125 C2.16168032 6.57762739 -1.50672345 7.27145391 -6 7 C-5.34 6.01 -4.68 5.02 -4 4 C-3.34 4 -2.68 4 -2 4 C-1.34 2.68 -0.68 1.36 0 0 Z " fill="#FA842E" transform="translate(21,54)"/>
<path d="M0 0 C0.5465625 0.26425781 1.093125 0.52851562 1.65625 0.80078125 C-1.77132834 5.51370147 -5.90906136 9.08022736 -10.34375 12.80078125 C-11.2925 13.60515625 -12.24125 14.40953125 -13.21875 15.23828125 C-15.34375 16.80078125 -15.34375 16.80078125 -17.34375 16.80078125 C-17.34375 15.15078125 -17.34375 13.50078125 -17.34375 11.80078125 C-16.7971875 11.57777344 -16.250625 11.35476563 -15.6875 11.125 C-11.53244857 8.77739594 -8.38679135 5.14662543 -5 1.8203125 C-2.34375 -0.19921875 -2.34375 -0.19921875 0 0 Z " fill="#6956C2" transform="translate(19.34375,3.19921875)"/>
<path d="M0 0 C0.33 0 0.66 0 1 0 C0.67 2.97 0.34 5.94 0 9 C-1.5823006 9.33820166 -3.16589375 9.67035939 -4.75 10 C-6.07257812 10.2784375 -6.07257812 10.2784375 -7.421875 10.5625 C-10 11 -10 11 -14 11 C-13.05581482 8.63953705 -12.45659048 7.27721565 -10.25 5.9375 C-9.5075 5.628125 -8.765 5.31875 -8 5 C-3.67015138 2.97296507 -3.67015138 2.97296507 0 0 Z " fill="#FB973C" transform="translate(61,43)"/>
<path d="M0 0 C-6.1500154 4.43373204 -10.32312162 5.13815029 -17.8125 5.0625 C-18.97394531 5.05347656 -20.13539062 5.04445313 -21.33203125 5.03515625 C-22.21246094 5.02355469 -23.09289063 5.01195312 -24 5 C-19.48002879 1.98668586 -15.27393147 0.70977609 -9.9375 -0.1875 C-8.40416016 -0.45626953 -8.40416016 -0.45626953 -6.83984375 -0.73046875 C-4.19000086 -0.98196691 -2.49429401 -0.84339438 0 0 Z " fill="#FEC561" transform="translate(59,57)"/>
<path d="M0 0 C-5.75158791 2.13021775 -11.3578538 3.5417758 -17.421875 4.47265625 C-20.05400928 4.93111583 -20.05400928 4.93111583 -22.62109375 6.05078125 C-25.52390586 7.20904618 -27.90352479 7.1440221 -31 7 C-30.01 6.67 -29.02 6.34 -28 6 C-28 5.34 -28 4.68 -28 4 C-25.50145233 3.34807312 -23.0013863 2.70336936 -20.5 2.0625 C-19.80390625 1.88009766 -19.1078125 1.69769531 -18.390625 1.50976562 C-5.03952206 -1.88982077 -5.03952206 -1.88982077 0 0 Z " fill="#FDB252" transform="translate(60,55)"/>
<path d="M0 0 C-6.125 6.125 -6.125 6.125 -11.0625 7.0625 C-11.98160156 7.23910156 -12.90070312 7.41570313 -13.84765625 7.59765625 C-14.55792969 7.73042969 -15.26820312 7.86320312 -16 8 C-12.09922195 -0.00332048 -8.5689029 -0.58870325 0 0 Z " fill="#AD409B" transform="translate(41,15)"/>
<path d="M0 0 C1.32 0.66 2.64 1.32 4 2 C4 2.99 4 3.98 4 5 C2.25 6.60546875 2.25 6.60546875 0 8.1875 C-0.7425 8.71730469 -1.485 9.24710938 -2.25 9.79296875 C-2.8275 10.19128906 -3.405 10.58960938 -4 11 C-4.99 10.01 -5.98 9.02 -7 8 C-5.61918777 3.8575633 -3.40174442 2.67796901 0 0 Z " fill="#A247A6" transform="translate(55,5)"/>
<path d="M0 0 C0.90552612 0.30006958 0.90552612 0.30006958 1.8293457 0.60620117 C1.33490967 0.91315918 0.84047363 1.22011719 0.33105469 1.53637695 C-2.71949539 3.71879084 -4.83187802 5.36295385 -5.84204102 9.07006836 C-6.08202477 11.89203373 -6.14076963 14.64942248 -6.1081543 17.48120117 C-6.12426758 18.45573242 -6.14038086 19.43026367 -6.15698242 20.43432617 C-6.19215987 22.82639283 -6.19583058 25.21413528 -6.1706543 27.60620117 C-6.5006543 27.60620117 -6.8306543 27.60620117 -7.1706543 27.60620117 C-7.31625624 23.87744729 -7.40482472 20.14942683 -7.4831543 16.41870117 C-7.52504883 15.36360352 -7.56694336 14.30850586 -7.61010742 13.22143555 C-7.74833258 4.45796024 -7.74833258 4.45796024 -4.90112305 1.30541992 C-2.1706543 -0.39379883 -2.1706543 -0.39379883 0 0 Z " fill="#B961AC" transform="translate(21.170654296875,15.393798828125)"/>
<path d="M0 0 C0.8125 1.6875 0.8125 1.6875 1 4 C-1.125 6.4375 -1.125 6.4375 -4 9 C-4.928125 9.928125 -5.85625 10.85625 -6.8125 11.8125 C-7.534375 12.534375 -8.25625 13.25625 -9 14 C-9 11.36 -9 8.72 -9 6 C-8.1646875 5.9071875 -8.1646875 5.9071875 -7.3125 5.8125 C-4.05012827 4.66626128 -2.31332126 2.50609803 0 0 Z " fill="#944AAB" transform="translate(11,14)"/>
<path d="M0 0 C1.22589844 0.01353516 1.22589844 0.01353516 2.4765625 0.02734375 C3.41628906 0.04474609 3.41628906 0.04474609 4.375 0.0625 C1.375 2.0625 1.375 2.0625 -0.9375 2.375 C-3.76040577 3.09713869 -4.60101654 3.77489016 -6.6875 5.6875 C-7.656875 6.47125 -8.62625 7.255 -9.625 8.0625 C-11.80859375 7.7109375 -11.80859375 7.7109375 -13.625 7.0625 C-12.50220538 6.08080524 -11.37668527 5.10222702 -10.25 4.125 C-9.31027344 3.30708984 -9.31027344 3.30708984 -8.3515625 2.47265625 C-5.45820583 0.1095301 -3.66304466 -0.05232921 0 0 Z " fill="#6158C7" transform="translate(32.625,1.9375)"/>
<path d="M0 0 C-3.3 2.97 -6.6 5.94 -10 9 C-10.33 8.34 -10.66 7.68 -11 7 C-5.60240964 -1.86746988 -5.60240964 -1.86746988 0 0 Z " fill="#4E5DD5" transform="translate(14,4)"/>
<path d="M0 0 C0.78375 0.04125 1.5675 0.0825 2.375 0.125 C-4.625 7.125 -4.625 7.125 -7.25 7.25 C-8.03375 7.20875 -8.8175 7.1675 -9.625 7.125 C-2.625 0.125 -2.625 0.125 0 0 Z " fill="#7E4FB6" transform="translate(45.625,2.875)"/>
<path d="M0 0 C2.31 0 4.62 0 7 0 C4.38485683 2.12038635 1.80362384 4.13091744 -1 6 C-3.1875 5.625 -3.1875 5.625 -5 5 C-4.01 4.67 -3.02 4.34 -2 4 C-0.79117904 1.99983534 -0.79117904 1.99983534 0 0 Z " fill="#F97726" transform="translate(21,54)"/>
<path d="M0 0 C0.33 0 0.66 0 1 0 C1 1.65 1 3.3 1 5 C-0.28788008 5.53012738 -1.58046678 6.0488329 -2.875 6.5625 C-3.95394531 6.99755859 -3.95394531 6.99755859 -5.0546875 7.44140625 C-7 8 -7 8 -9 7 C-6.62997587 4.38049964 -4.04546021 2.76316117 -1 1 C-0.67 0.67 -0.34 0.34 0 0 Z " fill="#FB7E2A" transform="translate(61,43)"/>
<path d="M0 0 C1.32 0.33 2.64 0.66 4 1 C-0.74963401 4.68096635 -4.00708997 5.58669586 -10 6 C-9.67 5.34 -9.34 4.68 -9 4 C-6.93359375 3.3671875 -6.93359375 3.3671875 -4.4375 2.875 C-3.61121094 2.70742188 -2.78492188 2.53984375 -1.93359375 2.3671875 C-0.97646484 2.18542969 -0.97646484 2.18542969 0 2 C0 1.34 0 0.68 0 0 Z " fill="#FED567" transform="translate(55,56)"/>
<path d="M0 0 C-1.49041773 3.79379058 -3.69062512 5.68343758 -7 8 C-7.66 8 -8.32 8 -9 8 C-7.47364599 4.11473526 -4.49771687 0 0 0 Z " fill="#944AAB" transform="translate(55,4)"/>
<path d="M0 0 C0 0.66 0 1.32 0 2 C-1.75 3.5078125 -1.75 3.5078125 -4 5.125 C-4.7425 5.66382813 -5.485 6.20265625 -6.25 6.7578125 C-6.8275 7.16773438 -7.405 7.57765625 -8 8 C-7.0320781 3.29866507 -5.15851549 0 0 0 Z " fill="#AB419D" transform="translate(59,8)"/>
<path d="M0 0 C1.98 0.495 1.98 0.495 4 1 C3.67 2.32 3.34 3.64 3 5 C1.68 4.67 0.36 4.34 -1 4 C-0.67 2.68 -0.34 1.36 0 0 Z " fill="#FBF2F7" transform="translate(42,18)"/>
<path d="M0 0 C0.33 0.99 0.66 1.98 1 3 C3.00016466 4.20882096 3.00016466 4.20882096 5 5 C4.01 5.66 3.02 6.32 2 7 C0.68 5.35 -0.64 3.7 -2 2 C-1.34 1.34 -0.68 0.68 0 0 Z " fill="#CE3D8D" transform="translate(39,19)"/>
</svg>
